<svg width="24" height="25" viewBox="0 0 24 25" fill="none" xmlns="http://www.w3.org/2000/svg">
<path d="M18.6699 2.5H16.7699C14.5899 2.5 13.4399 3.65 13.4399 5.83V7.73C13.4399 9.91 14.5899 11.06 16.7699 11.06H18.6699C20.8499 11.06 21.9999 9.91 21.9999 7.73V5.83C21.9999 3.65 20.8499 2.5 18.6699 2.5Z" fill="#21D4B4"/>
<path d="M7.24 13.9302H5.34C3.15 13.9302 2 15.0802 2 17.2602V19.1602C2 21.3502 3.15 22.5002 5.33 22.5002H7.23C9.41 22.5002 10.56 21.3502 10.56 19.1702V17.2702C10.57 15.0802 9.42 13.9302 7.24 13.9302Z" fill="#21D4B4"/>
<path d="M6.29 11.08C8.6593 11.08 10.58 9.1593 10.58 6.79C10.58 4.4207 8.6593 2.5 6.29 2.5C3.9207 2.5 2 4.4207 2 6.79C2 9.1593 3.9207 11.08 6.29 11.08Z" fill="#21D4B4"/>
<path d="M17.71 22.4999C20.0793 22.4999 22 20.5792 22 18.2099C22 15.8406 20.0793 13.9199 17.71 13.9199C15.3407 13.9199 13.42 15.8406 13.42 18.2099C13.42 20.5792 15.3407 22.4999 17.71 22.4999Z" fill="#21D4B4"/>
</svg>
