<svg width="25" height="25" viewBox="0 0 25 25" fill="none" xmlns="http://www.w3.org/2000/svg">
<path d="M12.75 22.1501C12.44 22.1501 12.14 22.1101 11.89 22.0201C8.07 20.7101 2 16.0601 2 9.1901C2 5.6901 4.83 2.8501 8.31 2.8501C10 2.8501 11.58 3.5101 12.75 4.6901C13.92 3.5101 15.5 2.8501 17.19 2.8501C20.67 2.8501 23.5 5.7001 23.5 9.1901C23.5 16.0701 17.43 20.7101 13.61 22.0201C13.36 22.1101 13.06 22.1501 12.75 22.1501ZM8.31 4.3501C5.66 4.3501 3.5 6.5201 3.5 9.1901C3.5 16.0201 10.07 19.8201 12.38 20.6101C12.56 20.6701 12.95 20.6701 13.13 20.6101C15.43 19.8201 22.01 16.0301 22.01 9.1901C22.01 6.5201 19.85 4.3501 17.2 4.3501C15.68 4.3501 14.27 5.0601 13.36 6.2901C13.08 6.6701 12.44 6.6701 12.16 6.2901C11.23 5.0501 9.83 4.3501 8.31 4.3501Z" fill="#6F7384"/>
</svg>
