<svg width="24" height="24" viewBox="0 0 24 24" fill="none" xmlns="http://www.w3.org/2000/svg">
<rect width="24" height="24" rx="4" fill="#EBEF14"/>
<path d="M12 13.4585C11.6583 13.4585 11.375 13.1752 11.375 12.8335V8.4585C11.375 8.11683 11.6583 7.8335 12 7.8335C12.3417 7.8335 12.625 8.11683 12.625 8.4585V12.8335C12.625 13.1752 12.3417 13.4585 12 13.4585Z" fill="white"/>
<path d="M12 16.375C11.775 16.375 11.5666 16.2917 11.4083 16.1334C11.3333 16.05 11.275 15.9584 11.225 15.8584C11.1833 15.7584 11.1666 15.65 11.1666 15.5417C11.1666 15.325 11.2583 15.1083 11.4083 14.95C11.7166 14.6417 12.2833 14.6417 12.5916 14.95C12.7416 15.1083 12.8333 15.325 12.8333 15.5417C12.8333 15.65 12.8083 15.7584 12.7666 15.8584C12.7249 15.9584 12.6666 16.05 12.5916 16.1334C12.4333 16.2917 12.225 16.375 12 16.375Z" fill="white"/>
<path d="M12.0002 20.9584C11.4419 20.9584 10.8752 20.8167 10.3752 20.5251L5.42518 17.6667C4.42518 17.0834 3.80017 16.0084 3.80017 14.8501V9.1501C3.80017 7.99176 4.42518 6.91676 5.42518 6.33342L10.3752 3.4751C11.3752 2.89176 12.6169 2.89176 13.6252 3.4751L18.5752 6.33342C19.5752 6.91676 20.2002 7.99176 20.2002 9.1501V14.8501C20.2002 16.0084 19.5752 17.0834 18.5752 17.6667L13.6252 20.5251C13.1252 20.8167 12.5585 20.9584 12.0002 20.9584ZM12.0002 4.29175C11.6585 4.29175 11.3085 4.38342 11.0002 4.55842L6.05018 7.41675C5.43351 7.77508 5.05017 8.43343 5.05017 9.1501V14.8501C5.05017 15.5584 5.43351 16.2251 6.05018 16.5834L11.0002 19.4417C11.6168 19.8001 12.3835 19.8001 12.9919 19.4417L17.9419 16.5834C18.5585 16.2251 18.9419 15.5667 18.9419 14.8501V9.1501C18.9419 8.44176 18.5585 7.77508 17.9419 7.41675L12.9919 4.55842C12.6919 4.38342 12.3419 4.29175 12.0002 4.29175Z" fill="white"/>
</svg>
