<svg width="24" height="24" viewBox="0 0 24 24" fill="none" xmlns="http://www.w3.org/2000/svg">
<rect width="24" height="24" rx="4" fill="#6F7384"/>
<path d="M12 3.04183C16.9417 3.04183 20.9584 7.0585 20.9584 12.0002C20.9584 16.9418 16.9417 20.9585 12 20.9585C7.05837 20.9585 3.04171 16.9418 3.04171 12.0002C3.04171 7.0585 7.05837 3.04183 12 3.04183ZM12 19.7085C16.25 19.7085 19.7084 16.2502 19.7084 12.0002C19.7084 7.75016 16.25 4.29183 12 4.29183C7.75004 4.29183 4.29171 7.75016 4.29171 12.0002C4.29171 16.2502 7.75004 19.7085 12 19.7085Z" fill="white"/>
<path d="M12 10.5418C12.3417 10.5418 12.625 10.8252 12.625 11.1668V15.3335C12.625 15.6752 12.3417 15.9585 12 15.9585C11.6583 15.9585 11.375 15.6752 11.375 15.3335V11.1668C11.375 10.8252 11.6583 10.5418 12 10.5418Z" fill="white"/>
<path d="M12 7.83311C12.1084 7.83311 12.2167 7.8581 12.3167 7.89977C12.4167 7.94144 12.5084 7.99977 12.5917 8.07477C12.6667 8.15811 12.725 8.24144 12.7667 8.34977C12.8084 8.44977 12.8334 8.55811 12.8334 8.66644C12.8334 8.77477 12.8084 8.88311 12.7667 8.98311C12.725 9.08311 12.6667 9.17477 12.5917 9.25811C12.5084 9.33311 12.4167 9.39144 12.3167 9.43311C12.1167 9.51644 11.8834 9.51644 11.6834 9.43311C11.5834 9.39144 11.4917 9.33311 11.4084 9.25811C11.3334 9.17477 11.275 9.08311 11.2334 8.98311C11.1917 8.88311 11.1667 8.77477 11.1667 8.66644C11.1667 8.55811 11.1917 8.44977 11.2334 8.34977C11.275 8.24144 11.3334 8.15811 11.4084 8.07477C11.4917 7.99977 11.5834 7.94144 11.6834 7.89977C11.7834 7.8581 11.8917 7.83311 12 7.83311Z" fill="white"/>
</svg>
